<svg version="1.1" id="Layer_1" xmlns="http://www.w3.org/2000/svg" xmlns:xlink="http://www.w3.org/1999/xlink" x="0px" y="0px"
	 width="100%" viewBox="0 0 622 583" enable-background="new 0 0 622 583" xml:space="preserve">
<path fill="#FFFFFE" opacity="1.000000" stroke="none" 
	d="
M386.000000,584.000000 
	C257.333344,584.000000 129.166672,584.000000 1.000000,584.000000 
	C1.000000,389.666656 1.000000,195.333328 1.000000,1.000000 
	C208.333328,1.000000 415.666656,1.000000 623.000000,1.000000 
	C623.000000,195.333328 623.000000,389.666656 623.000000,584.000000 
	C544.166687,584.000000 465.333344,584.000000 386.000000,584.000000 
M419.963531,203.411377 
	C419.664124,203.216797 419.364746,203.022217 418.781860,202.228455 
	C398.093445,184.873734 374.805847,172.777222 347.718872,166.783295 
	C347.479309,157.513229 347.239716,148.243164 347.358185,138.712494 
	C347.583282,138.509018 347.736389,138.261093 347.937866,138.024368 
	C347.937866,138.024368 347.993958,137.904282 348.921783,138.048965 
	C364.368866,138.048965 379.815948,138.048965 395.447052,138.048965 
	C395.639679,136.734619 395.856445,135.942154 395.857330,135.149460 
	C395.880035,114.651741 395.800293,94.153389 395.955048,73.656784 
	C395.984314,69.777443 394.133270,69.431145 391.034180,69.434807 
	C339.039856,69.496193 287.045258,69.526794 235.051178,69.398880 
	C230.966019,69.388824 230.022644,70.775467 230.054245,74.578362 
	C230.209366,93.241684 230.117798,111.907051 230.113541,130.571701 
	C230.113022,132.858505 230.113480,135.145294 230.113480,137.920807 
	C246.462830,137.920807 262.230469,137.920807 278.048859,138.022690 
	C278.048859,138.022690 278.151520,137.973526 278.342926,138.374664 
	C278.514069,138.624695 278.733093,138.821396 278.890411,139.901260 
	C278.998291,148.869019 279.106171,157.836777 279.042816,167.639008 
	C279.072784,175.439484 279.102753,183.239975 278.937378,191.948639 
	C278.997253,196.619339 279.057129,201.290039 278.932648,206.717377 
	C278.994629,207.488251 279.056610,208.259109 278.925293,209.945709 
	C278.925293,218.569443 278.925293,227.193192 278.925293,236.290237 
	C280.602722,235.864456 281.686707,235.626495 282.748871,235.314224 
	C306.165314,228.429886 329.125397,229.257385 351.750854,238.863007 
	C363.632568,243.907379 373.392975,251.799393 382.860138,261.024384 
	C385.238525,263.780579 388.185608,266.226562 389.889709,269.350555 
	C395.209778,279.103394 400.059937,289.112518 405.044586,299.765656 
	C405.647675,301.384735 406.250763,303.003815 406.498474,304.991638 
	C406.598877,305.304626 406.699310,305.617584 406.736206,306.819733 
	C409.540619,322.046661 409.901733,337.407166 404.776093,352.031616 
	C400.988098,362.839508 395.000092,372.876312 389.398743,383.449005 
	C389.138916,384.009308 388.879089,384.569611 388.333679,385.337280 
	C388.333679,385.337280 388.240112,385.677612 387.648529,385.895325 
	C374.009033,401.924347 357.432068,413.460419 336.788116,418.444580 
	C315.470215,423.591461 294.381836,422.603790 274.170898,413.835693 
	C267.069061,410.754730 260.779846,405.800537 253.834488,401.117859 
	C246.234100,392.736908 238.633713,384.355927 230.958496,375.428192 
	C230.681870,375.212524 230.405243,374.996857 230.162537,374.890289 
	C230.162537,374.890289 230.248764,374.815277 230.216141,374.117157 
	C229.161850,373.361603 228.107559,372.606049 227.065704,371.340637 
	C226.792130,370.924866 226.518570,370.509064 226.830490,369.975464 
	C225.951477,367.127441 225.038696,364.289307 224.199814,361.429535 
	C221.800064,353.248688 219.430313,345.059052 217.048431,336.111603 
	C217.534180,327.476349 218.019928,318.841095 218.871567,309.559174 
	C222.762253,290.417999 230.083282,273.009979 244.950058,258.861816 
	C247.292084,256.031189 251.268417,253.403427 251.649979,250.329468 
	C252.559998,242.997971 251.773392,235.455872 251.911209,227.088760 
	C251.911209,210.151413 251.911209,193.214050 251.911209,175.162247 
	C247.481400,177.135559 243.842102,178.579086 240.361786,180.337296 
	C223.756805,188.725815 208.636246,199.147720 195.573456,213.242172 
	C195.402008,213.563812 195.230545,213.885452 194.524933,214.409286 
	C194.259079,214.889236 193.993210,215.369202 193.841965,215.836090 
	C193.841965,215.836090 193.768814,215.746887 193.164703,215.935745 
	C192.395172,216.922241 191.625641,217.908752 190.960632,218.966324 
	C190.960632,218.966324 190.897308,218.856918 190.296082,219.006241 
	C189.838715,219.652084 189.381332,220.297928 188.988251,221.005615 
	C188.988251,221.005615 188.940033,220.931335 188.414047,221.221191 
	C188.172638,221.750687 187.931229,222.280182 187.814026,222.848511 
	C187.814026,222.848511 187.778107,222.723434 187.225571,222.845566 
	C187.066772,223.170410 186.907974,223.495255 186.847885,223.879456 
	C186.847885,223.879456 186.825256,223.766525 186.265305,223.910843 
	C186.097122,224.247589 185.928955,224.584335 185.188171,225.244278 
	C179.184570,234.831299 173.180984,244.418320 166.711090,254.541550 
	C159.955338,267.993835 154.891006,281.993927 152.520813,297.618774 
	C152.349197,299.082031 152.177582,300.545258 151.698334,302.441254 
	C151.687180,302.947479 151.676025,303.453674 151.313873,304.627502 
	C151.327789,305.126312 151.341705,305.625153 151.084747,306.864380 
	C150.995560,309.202759 150.906357,311.541107 150.444107,314.706268 
	C150.407730,316.510559 150.371338,318.314850 150.014374,320.827789 
	C150.101059,324.175659 150.187744,327.523499 150.073257,331.714935 
	C150.198944,333.141205 150.324631,334.567505 150.268829,336.837158 
	C150.611618,339.851288 150.954422,342.865387 151.237167,346.697113 
	C151.397964,347.213135 151.558762,347.729156 151.509521,348.881073 
	C151.823944,350.198944 152.138382,351.516785 152.355713,353.644775 
	C152.878143,355.771973 153.400574,357.899139 153.673111,360.573334 
	C153.909500,361.327515 154.145874,362.081696 154.377777,363.750519 
	C154.576965,364.323364 154.776154,364.896179 154.756912,365.625946 
	C154.756912,365.625946 154.773605,366.004364 154.773605,366.004364 
	C154.773605,366.004364 155.059387,366.028595 155.133728,366.602905 
	C155.243347,366.761810 155.352966,366.920685 155.545639,367.861786 
	C156.110199,369.593140 156.674759,371.324463 157.164703,373.660217 
	C157.395386,373.977570 157.626053,374.294891 157.681198,375.241425 
	C158.008102,376.020172 158.335007,376.798920 158.678619,378.205566 
	C159.048538,378.939667 159.418457,379.673767 159.818192,381.148132 
	C163.847610,389.778290 167.877045,398.408447 171.967621,407.597137 
	C172.257629,407.810181 172.547653,408.023193 172.802063,408.286469 
	C172.802063,408.286469 172.789032,408.346619 172.830399,409.047363 
	C179.865067,418.423676 186.899734,427.799988 194.183594,437.786652 
	C196.820862,440.192169 199.458145,442.597656 202.150574,445.668152 
	C204.079742,447.128998 206.008911,448.589874 207.992325,450.000549 
	C207.992325,450.000549 207.950409,450.060577 208.163116,450.631012 
	C208.688354,450.895386 209.213593,451.159760 209.730667,451.276611 
	C209.730667,451.276611 209.630005,451.384766 209.854370,451.944580 
	C210.527802,452.358643 211.201248,452.772705 211.922058,453.097076 
	C211.922058,453.097076 211.821518,453.083771 211.983154,453.629791 
	C212.304474,453.809937 212.625778,453.990082 213.140823,454.638397 
	C213.446014,454.756256 213.751205,454.874115 214.314285,455.525452 
	C214.837326,455.767273 215.360367,456.009125 215.889389,456.144806 
	C215.889389,456.144806 215.795380,456.194489 216.073395,456.809052 
	C219.428680,459.066132 222.783981,461.323181 226.330536,463.738800 
	C226.330536,463.738800 226.552780,463.849792 226.861328,464.383026 
	C244.631607,475.424957 263.788940,482.776794 284.446472,486.255859 
	C328.184845,493.622131 368.453613,484.977051 405.239716,460.209412 
	C406.376770,459.443878 407.122864,458.097717 408.773682,457.072815 
	C414.877991,451.790649 420.982330,446.508484 427.765656,441.080841 
	C429.911407,438.746277 432.057129,436.411713 434.722534,433.896362 
	C435.196228,433.352722 435.669922,432.809113 436.733643,431.924133 
	C448.024475,418.789825 457.254791,404.394226 463.919189,387.636322 
	C463.957123,386.757660 463.995056,385.879028 464.336395,384.385681 
	C464.965057,382.992645 465.593719,381.599609 466.172729,380.165710 
	C466.172729,380.165710 466.135315,380.216217 466.640015,380.037750 
	C466.719757,379.700531 466.799500,379.363342 467.303131,378.416016 
	C473.195465,361.119354 476.323975,343.386169 475.944916,324.194183 
	C475.806915,322.124023 475.668884,320.053894 475.739166,317.142365 
	C474.862732,310.930145 473.986267,304.717896 473.320312,298.013733 
	C473.220490,297.678101 473.120667,297.342499 473.121246,296.166779 
	C469.137970,283.758484 465.154663,271.350220 461.150787,258.256134 
	C460.434448,257.183655 459.718140,256.111176 458.988647,254.990250 
	C458.988647,254.990250 458.941101,255.008621 458.615021,254.361038 
	C458.177185,252.947052 457.941620,251.428116 457.270538,250.135193 
	C449.673584,235.498856 439.590332,222.717133 427.785309,210.591492 
	C427.490845,210.400909 427.196411,210.210342 426.676971,209.442169 
	C426.151733,209.121658 425.626526,208.801147 425.047913,208.147812 
	C424.914825,207.926804 424.721283,207.838730 424.169434,207.336777 
	C423.810303,207.156036 423.451202,206.975281 423.140289,206.901932 
	C423.140289,206.901932 423.226196,206.821396 423.067780,206.221970 
	C422.411713,205.771988 421.755676,205.322006 421.021271,204.930878 
	C421.021271,204.930878 421.119232,204.932449 420.979340,204.406067 
	C420.671082,204.240540 420.362823,204.075012 420.011322,203.985626 
	C420.011322,203.985626 420.089478,203.946152 419.963531,203.411377 
z"/>
<path fill="#F27421" opacity="1.000000" stroke="none" 
	d="
M466.222412,380.206543 
	C465.593719,381.599609 464.965057,382.992645 463.829712,384.697815 
	C462.685455,385.331177 462.047943,385.652405 461.410400,385.973602 
	C462.110901,386.708588 462.811401,387.443573 463.511871,388.178589 
	C457.254791,404.394226 448.024475,418.789825 436.228516,431.793152 
	C434.580750,431.190948 433.438080,430.719727 432.306854,430.253235 
	C432.941681,428.607971 433.450653,427.288910 434.127014,425.536041 
	C431.999573,425.081329 430.264862,424.378387 428.538300,424.397827 
	C420.159149,424.492310 411.779968,425.019806 403.404938,424.943054 
	C391.285065,424.832031 379.170380,424.206329 367.050262,424.047913 
	C359.856903,423.953857 352.293427,422.565613 346.241211,428.313995 
	C345.906281,428.632141 345.340698,428.813049 344.863190,428.859467 
	C337.326050,429.592133 329.781647,430.252441 322.248077,431.019043 
	C319.158691,431.333405 317.361053,430.171021 316.108459,427.246429 
	C314.411530,423.284424 309.967865,422.958649 307.448639,426.350372 
	C303.001801,432.337341 290.122162,433.349304 285.402679,427.737213 
	C282.466187,424.245331 280.037354,424.693604 276.411285,426.550385 
	C273.909668,427.831421 269.753113,428.923553 267.829834,427.717743 
	C262.167694,424.167725 261.026428,423.760498 255.852341,428.449036 
	C250.868668,423.320618 249.256546,423.475403 243.948090,428.908447 
	C238.366119,427.601227 233.375275,426.203949 228.293045,425.351654 
	C226.181351,424.997528 223.874527,425.807037 221.656433,426.087402 
	C222.035324,427.898529 222.436050,429.705688 222.769638,431.525116 
	C222.819901,431.799225 222.556732,432.130798 222.559448,432.123779 
	C217.555145,433.097748 212.770996,434.274536 207.915573,434.861420 
	C205.764084,435.121521 203.433029,434.326538 201.246307,433.765594 
	C197.795456,432.880371 195.070938,433.244232 193.934387,437.176300 
	C186.899734,427.799988 179.865067,418.423676 173.192947,408.560577 
	C176.929184,406.761597 179.963135,405.937744 181.315598,410.859711 
	C181.571915,411.792511 184.405716,413.083282 185.091904,412.658997 
	C189.597916,409.872925 195.857376,409.922119 198.668915,404.200409 
	C199.151794,403.217712 202.205490,402.304565 203.023727,402.871521 
	C208.906525,406.947968 214.198883,404.955872 219.607269,402.016907 
	C220.493759,401.535187 222.109711,401.127777 222.706924,401.582031 
	C227.582733,405.291168 233.409149,404.071350 238.790771,405.148041 
	C243.830551,406.156372 247.857361,399.860138 252.953583,403.732574 
	C253.342239,403.055603 253.730911,402.378632 254.119598,401.701660 
	C260.779846,405.800537 267.069061,410.754730 274.170898,413.835693 
	C294.381836,422.603790 315.470215,423.591461 336.788116,418.444580 
	C357.432068,413.460419 374.009033,401.924347 388.368469,385.879517 
	C390.781799,385.024963 392.439850,384.102539 394.177368,383.367981 
	C396.501495,382.385437 399.758392,380.105530 401.089417,380.909119 
	C405.816467,383.763092 409.161682,381.423584 413.017731,379.494537 
	C414.807556,378.599152 417.347260,377.724915 419.018524,378.321533 
	C427.012817,381.175354 434.994446,379.523682 443.060669,379.380402 
	C449.103149,379.273071 455.972076,377.915039 460.916992,383.634247 
	C462.692230,382.487305 464.457306,381.346924 466.222412,380.206543 
M262.296448,409.431274 
	C262.010651,409.704132 261.724854,409.976990 261.439056,410.249847 
	C261.552216,410.368103 261.757477,410.595459 261.765167,410.588928 
	C262.066620,410.334351 262.350067,410.058380 262.296448,409.431274 
z"/>
<path fill="#F16E21" opacity="1.000000" stroke="none" 
	d="
M194.058990,437.481476 
	C195.070938,433.244232 197.795456,432.880371 201.246307,433.765594 
	C203.433029,434.326538 205.764084,435.121521 207.915573,434.861420 
	C212.770996,434.274536 217.555145,433.097748 222.559448,432.123779 
	C222.556732,432.130798 222.819901,431.799225 222.769638,431.525116 
	C222.436050,429.705688 222.035324,427.898529 221.656433,426.087402 
	C223.874527,425.807037 226.181351,424.997528 228.293045,425.351654 
	C233.375275,426.203949 238.366119,427.601227 243.948090,428.908447 
	C249.256546,423.475403 250.868668,423.320618 255.852341,428.449036 
	C261.026428,423.760498 262.167694,424.167725 267.829834,427.717743 
	C269.753113,428.923553 273.909668,427.831421 276.411285,426.550385 
	C280.037354,424.693604 282.466187,424.245331 285.402679,427.737213 
	C290.122162,433.349304 303.001801,432.337341 307.448639,426.350372 
	C309.967865,422.958649 314.411530,423.284424 316.108459,427.246429 
	C317.361053,430.171021 319.158691,431.333405 322.248077,431.019043 
	C329.781647,430.252441 337.326050,429.592133 344.863190,428.859467 
	C345.340698,428.813049 345.906281,428.632141 346.241211,428.313995 
	C352.293427,422.565613 359.856903,423.953857 367.050262,424.047913 
	C379.170380,424.206329 391.285065,424.832031 403.404938,424.943054 
	C411.779968,425.019806 420.159149,424.492310 428.538300,424.397827 
	C430.264862,424.378387 431.999573,425.081329 434.127014,425.536041 
	C433.450653,427.288910 432.941681,428.607971 432.306854,430.253235 
	C433.438080,430.719727 434.580750,431.190948 435.933533,431.963806 
	C435.669922,432.809113 435.196228,433.352722 434.084412,433.971436 
	C431.326416,436.439758 429.206543,438.833038 427.086670,441.226318 
	C420.982330,446.508484 414.877991,451.790649 408.009216,457.086914 
	C403.285980,458.450897 399.298126,459.723114 395.382080,461.187408 
	C393.718323,461.809509 392.205078,462.834229 390.623444,463.675995 
	C389.750153,461.806366 388.790222,459.971161 388.030060,458.056610 
	C387.386200,456.434906 387.457886,454.241608 386.366364,453.139893 
	C383.257050,450.001373 371.447693,452.150085 369.104279,456.001190 
	C367.355164,458.875641 363.823181,458.772003 362.130646,455.860565 
	C361.539642,454.843903 360.811707,453.338074 359.926941,453.162842 
	C356.699677,452.523499 353.342590,451.902893 350.108612,452.170868 
	C348.146576,452.333435 346.273224,454.068268 344.450867,455.238220 
	C343.223511,456.026154 341.997986,457.943420 341.052429,457.775360 
	C339.690399,457.533325 338.625092,455.802917 337.355347,454.806915 
	C336.181061,453.885803 335.004120,452.660950 333.649231,452.349731 
	C331.657990,451.892365 329.504364,452.180450 327.425446,452.057465 
	C324.157623,451.864105 321.264099,451.782318 319.778931,455.813965 
	C318.682220,458.791138 312.624146,459.450134 311.181061,457.140869 
	C307.586792,451.389252 300.134918,450.358124 294.700836,454.716797 
	C292.990936,456.088318 290.957489,457.056488 289.482819,457.958130 
	C287.755524,455.950134 286.758484,453.682404 285.247131,453.261536 
	C281.951904,452.343781 278.358154,451.911713 274.959625,452.186584 
	C273.123505,452.335114 271.442474,454.354553 269.683380,455.517639 
	C268.423431,456.350739 267.199249,457.684723 265.866089,457.810669 
	C264.900299,457.901947 263.345459,456.595032 262.820679,455.532562 
	C261.651154,453.164856 260.605438,451.642670 257.528503,452.806885 
	C256.333740,453.258942 254.624451,452.123596 253.209915,452.275085 
	C251.035477,452.507996 248.641785,452.766510 246.825119,453.836182 
	C243.016327,456.078796 239.538940,458.880402 235.880615,461.386993 
	C235.387878,461.724609 234.458984,462.003448 234.031982,461.767303 
	C230.799225,459.979218 228.765152,462.177490 226.552780,463.849792 
	C226.552780,463.849792 226.330536,463.738800 226.489746,463.269745 
	C226.292358,461.343353 226.307220,458.902008 225.513596,458.602448 
	C222.413010,457.432068 219.056656,456.939209 215.795380,456.194458 
	C215.795380,456.194489 215.889389,456.144806 215.789520,455.905273 
	C215.145248,455.441132 214.600830,455.216553 214.056396,454.991974 
	C213.751205,454.874115 213.446014,454.756256 212.944717,454.144470 
	C212.439575,453.461639 212.130539,453.272705 211.821518,453.083771 
	C211.821518,453.083771 211.922058,453.097076 211.892685,452.775635 
	C211.118881,452.097748 210.374435,451.741241 209.630005,451.384766 
	C209.630005,451.384766 209.730667,451.276611 209.694183,451.021729 
	C209.088593,450.531464 208.519501,450.296021 207.950409,450.060577 
	C207.950409,450.060577 207.992325,450.000549 207.989166,449.655762 
	C208.533447,447.729858 209.080902,446.148773 209.636230,444.544891 
	C206.897247,444.711334 204.496338,444.857239 202.095428,445.003143 
	C199.458145,442.597656 196.820862,440.192169 194.058990,437.481476 
M237.936447,431.259216 
	C237.290756,430.600952 236.645065,429.942719 235.999359,429.284454 
	C235.728745,429.804443 235.458130,430.324402 235.187500,430.844421 
	C236.058960,431.214203 236.930420,431.583984 237.936447,431.259216 
z"/>
<path fill="#F7971A" opacity="1.000000" stroke="none" 
	d="
M348.221680,167.349670 
	C374.805847,172.777222 398.093445,184.873734 419.007996,202.782898 
	C419.519226,203.540268 419.804352,203.743210 420.089478,203.946152 
	C420.089478,203.946152 420.011322,203.985626 420.130920,204.189941 
	C420.540070,204.573654 420.829651,204.753052 421.119232,204.932434 
	C421.119232,204.932449 421.021271,204.930878 421.071411,205.250946 
	C421.823090,205.987808 422.524628,206.404602 423.226196,206.821396 
	C423.226196,206.821396 423.140289,206.901932 423.240601,207.140060 
	C423.716400,207.546661 424.091827,207.715134 424.467285,207.883606 
	C424.721283,207.838730 424.914825,207.926804 425.148712,208.638443 
	C425.800323,209.425964 426.351135,209.722870 426.901947,210.019775 
	C427.196411,210.210342 427.490845,210.400909 427.697815,211.171875 
	C426.798279,213.677429 425.986206,215.602585 424.756714,218.517410 
	C417.374573,218.167343 409.561157,217.787628 401.746155,217.443954 
	C401.130310,217.416870 400.142639,217.428238 399.935699,217.779694 
	C396.804810,223.096741 392.998444,221.979202 388.848938,219.173157 
	C388.259888,218.774811 387.220428,219.009171 386.389343,219.007462 
	C380.802704,218.995911 375.216034,219.012390 369.629517,218.986725 
	C368.637665,218.982178 367.645294,218.735825 366.655273,218.749695 
	C361.069794,218.828003 355.483276,218.907974 349.902222,219.120728 
	C349.275238,219.144638 348.318420,219.892624 348.126190,220.498795 
	C346.151093,226.726730 343.227814,224.989609 339.368713,222.055481 
	C333.735870,217.772720 327.204315,217.846115 324.545166,220.857910 
	C320.912994,220.171860 317.827667,219.221878 314.705231,219.078308 
	C308.806702,218.807053 302.870941,219.260757 296.981903,218.901184 
	C293.458496,218.686050 288.355591,218.624802 286.887299,216.486313 
	C284.680084,213.271652 282.111420,211.095108 279.118591,209.029984 
	C279.056610,208.259109 278.994629,207.488251 279.296936,206.033951 
	C279.485107,200.580505 279.308929,195.810471 279.132751,191.040451 
	C279.102753,183.239975 279.072784,175.439484 279.556427,167.298492 
	C283.391907,168.304565 286.688934,170.738480 290.039825,170.815079 
	C307.280853,171.209167 324.537811,171.125900 341.782990,170.836914 
	C343.948090,170.800644 346.076355,168.565826 348.221680,167.349670 
z"/>
<path fill="#F6911D" opacity="1.000000" stroke="none" 
	d="
M279.021912,209.487854 
	C282.111420,211.095108 284.680084,213.271652 286.887299,216.486313 
	C288.355591,218.624802 293.458496,218.686050 296.981903,218.901184 
	C302.870941,219.260757 308.806702,218.807053 314.705231,219.078308 
	C317.827667,219.221878 320.912994,220.171860 324.545166,220.857910 
	C327.204315,217.846115 333.735870,217.772720 339.368713,222.055481 
	C343.227814,224.989609 346.151093,226.726730 348.126190,220.498795 
	C348.318420,219.892624 349.275238,219.144638 349.902222,219.120728 
	C355.483276,218.907974 361.069794,218.828003 366.655273,218.749695 
	C367.645294,218.735825 368.637665,218.982178 369.629517,218.986725 
	C375.216034,219.012390 380.802704,218.995911 386.389343,219.007462 
	C387.220428,219.009171 388.259888,218.774811 388.848938,219.173157 
	C392.998444,221.979202 396.804810,223.096741 399.935699,217.779694 
	C400.142639,217.428238 401.130310,217.416870 401.746155,217.443954 
	C409.561157,217.787628 417.374573,218.167343 424.756714,218.517410 
	C425.986206,215.602585 426.798279,213.677429 427.783447,211.429047 
	C439.590332,222.717133 449.673584,235.498856 457.270538,250.135193 
	C457.941620,251.428116 458.177185,252.947052 458.359863,254.684372 
	C449.534271,255.671814 440.973877,256.625549 432.390717,256.923065 
	C422.739380,257.257568 413.049500,256.640961 403.410889,257.124939 
	C396.874939,257.453094 390.646851,261.013916 383.809448,259.380310 
	C383.552673,259.318970 383.114716,260.016052 382.761169,260.359711 
	C373.392975,251.799393 363.632568,243.907379 351.750854,238.863007 
	C329.125397,229.257385 306.165314,228.429886 282.748871,235.314224 
	C281.686707,235.626495 280.602722,235.864456 278.925293,236.290237 
	C278.925293,227.193192 278.925293,218.569443 279.021912,209.487854 
z"/>
<path fill="#F16A23" opacity="1.000000" stroke="none" 
	d="
M226.707062,464.116394 
	C228.765152,462.177490 230.799225,459.979218 234.031982,461.767303 
	C234.458984,462.003448 235.387878,461.724609 235.880615,461.386993 
	C239.538940,458.880402 243.016327,456.078796 246.825119,453.836182 
	C248.641785,452.766510 251.035477,452.507996 253.209915,452.275085 
	C254.624451,452.123596 256.333740,453.258942 257.528503,452.806885 
	C260.605438,451.642670 261.651154,453.164856 262.820679,455.532562 
	C263.345459,456.595032 264.900299,457.901947 265.866089,457.810669 
	C267.199249,457.684723 268.423431,456.350739 269.683380,455.517639 
	C271.442474,454.354553 273.123505,452.335114 274.959625,452.186584 
	C278.358154,451.911713 281.951904,452.343781 285.247131,453.261536 
	C286.758484,453.682404 287.755524,455.950134 289.482819,457.958130 
	C290.957489,457.056488 292.990936,456.088318 294.700836,454.716797 
	C300.134918,450.358124 307.586792,451.389252 311.181061,457.140869 
	C312.624146,459.450134 318.682220,458.791138 319.778931,455.813965 
	C321.264099,451.782318 324.157623,451.864105 327.425446,452.057465 
	C329.504364,452.180450 331.657990,451.892365 333.649231,452.349731 
	C335.004120,452.660950 336.181061,453.885803 337.355347,454.806915 
	C338.625092,455.802917 339.690399,457.533325 341.052429,457.775360 
	C341.997986,457.943420 343.223511,456.026154 344.450867,455.238220 
	C346.273224,454.068268 348.146576,452.333435 350.108612,452.170868 
	C353.342590,451.902893 356.699677,452.523499 359.926941,453.162842 
	C360.811707,453.338074 361.539642,454.843903 362.130646,455.860565 
	C363.823181,458.772003 367.355164,458.875641 369.104279,456.001190 
	C371.447693,452.150085 383.257050,450.001373 386.366364,453.139893 
	C387.457886,454.241608 387.386200,456.434906 388.030060,458.056610 
	C388.790222,459.971161 389.750153,461.806366 390.623444,463.675995 
	C392.205078,462.834229 393.718323,461.809509 395.382080,461.187408 
	C399.298126,459.723114 403.285980,458.450897 407.648010,457.061646 
	C407.122864,458.097717 406.376770,459.443878 405.239716,460.209412 
	C368.453613,484.977051 328.184845,493.622131 284.446472,486.255859 
	C263.788940,482.776794 244.631607,475.424957 226.707062,464.116394 
z"/>
<path fill="#F5841D" opacity="1.000000" stroke="none" 
	d="
M406.799744,305.930573 
	C406.699310,305.617584 406.598877,305.304626 406.713257,304.343018 
	C406.951233,302.465393 406.974426,301.236420 407.393616,300.003967 
	C409.722443,298.092316 411.655212,296.184143 413.588013,294.275970 
	C413.335236,293.911987 413.082489,293.548004 412.829742,293.184021 
	C432.106903,293.184021 451.384064,293.184021 470.909180,293.184021 
	C471.449707,294.162567 472.235260,295.584717 473.020813,297.006866 
	C473.120667,297.342499 473.220490,297.678101 473.188904,298.743774 
	C473.384247,305.063934 473.668121,310.657379 474.098602,316.239502 
	C474.145996,316.854065 475.033173,317.403900 475.530884,317.983734 
	C475.668884,320.053894 475.806915,322.124023 475.528351,324.849854 
	C474.532410,330.805664 473.953033,336.105865 473.460022,340.616058 
	C470.768585,340.616058 467.921265,339.812927 465.891052,340.760559 
	C458.625946,344.151520 451.456848,343.580780 444.091339,341.584686 
	C442.702545,341.208344 441.147186,341.113098 439.717194,341.286957 
	C435.990234,341.740204 432.308594,342.635406 428.574890,342.946411 
	C423.688568,343.353363 418.735565,343.074951 413.874664,343.638275 
	C409.403046,344.156433 408.679230,343.645264 409.010376,339.006714 
	C409.457764,332.739166 410.176727,326.428680 409.838776,320.187561 
	C409.579224,315.394440 407.866302,310.679993 406.799744,305.930573 
z"/>
<path fill="#F58A1D" opacity="1.000000" stroke="none" 
	d="
M244.358215,259.115417 
	C230.083282,273.009979 222.762253,290.417999 218.310425,309.733826 
	C212.381851,308.757904 209.108627,304.807404 206.435806,300.600677 
	C204.322876,297.275146 202.239120,296.487244 198.651428,297.863892 
	C196.764496,298.587982 194.520889,298.560547 192.439423,298.553467 
	C189.970856,298.545105 187.506424,298.113892 185.034378,298.020996 
	C183.605698,297.967285 182.166183,298.304138 180.730377,298.315399 
	C178.057693,298.336395 175.232452,297.682526 172.749619,298.348816 
	C169.683945,299.171570 167.487396,298.955597 165.071182,296.781738 
	C162.427155,294.402924 159.320358,292.538513 156.447968,290.473419 
	C154.921326,293.331421 153.939392,295.169708 152.957458,297.007996 
	C154.891006,281.993927 159.955338,267.993835 167.289093,254.319122 
	C169.753296,255.376160 171.545135,257.559662 173.543091,257.768188 
	C179.917831,258.433502 186.367661,258.470734 192.791153,258.559753 
	C209.979431,258.798065 227.169098,258.936981 244.358215,259.115417 
z"/>
<path fill="#F89F1B" opacity="1.000000" stroke="none" 
	d="
M347.970276,167.066467 
	C346.076355,168.565826 343.948090,170.800644 341.782990,170.836914 
	C324.537811,171.125900 307.280853,171.209167 290.039825,170.815079 
	C286.688934,170.738480 283.391907,168.304565 279.642029,166.881256 
	C279.106171,157.836777 278.998291,148.869019 278.859344,139.225143 
	C278.661438,138.288101 278.435852,138.096268 278.151520,137.973526 
	C278.151520,137.973526 278.048859,138.022690 277.716766,137.693054 
	C275.586792,137.242462 273.789185,137.021286 271.991028,137.016739 
	C259.773468,136.985764 247.555817,137.008026 235.338242,136.993073 
	C233.250153,136.990509 230.706573,137.534592 231.491058,133.993179 
	C238.036682,132.460709 244.129547,130.613403 250.355591,129.535187 
	C253.070404,129.065063 256.096588,129.996918 258.910980,130.613388 
	C261.529419,131.186951 264.015076,132.366379 266.633484,132.940491 
	C268.550812,133.360870 270.602142,133.440201 272.569641,133.309311 
	C277.751892,132.964584 282.957184,132.659805 288.083252,131.879120 
	C291.787445,131.315002 295.395691,129.136993 299.018433,129.204208 
	C310.422028,129.415817 321.810059,130.390854 333.209534,130.963058 
	C335.480774,131.077087 338.212616,129.849411 339.977173,130.738525 
	C345.045685,133.292465 349.289673,131.285614 353.792328,129.553543 
	C355.354309,128.952667 357.108490,128.851486 358.774902,128.522064 
	C358.849945,130.348038 358.924988,132.174026 358.629700,134.007324 
	C357.509552,134.999557 356.759644,135.984467 355.581238,136.978210 
	C352.766449,137.292786 350.380219,137.598541 347.993958,137.904282 
	C347.993958,137.904282 347.937866,138.024368 347.693787,138.120010 
	C347.219727,138.420532 347.069855,138.673004 347.000153,138.973099 
	C347.239716,148.243164 347.479309,157.513229 347.970276,167.066467 
z"/>
<path fill="#FAAD1E" opacity="1.000000" stroke="none" 
	d="
M348.457886,137.976624 
	C350.380219,137.598541 352.766449,137.292786 355.953522,136.987762 
	C357.499634,136.982315 358.244934,136.976166 359.459808,136.980621 
	C370.171936,136.994064 380.415710,137.074615 390.655579,136.910202 
	C392.079895,136.887314 393.484833,135.657242 394.926697,134.519058 
	C394.636810,119.941254 394.277863,105.831161 394.019226,91.719223 
	C393.896393,85.017258 393.983063,85.002312 387.405273,85.001335 
	C354.271271,84.996437 321.137299,84.999046 288.003296,84.999107 
	C271.020050,84.999146 254.036331,85.068474 237.053879,84.952026 
	C232.682419,84.922050 230.825150,86.305847 230.919876,91.036819 
	C231.206497,105.350151 231.066269,119.672035 231.092377,133.990585 
	C230.706573,137.534592 233.250153,136.990509 235.338242,136.993073 
	C247.555817,137.008026 259.773468,136.985764 271.991028,137.016739 
	C273.789185,137.021286 275.586792,137.242462 277.691406,137.642105 
	C262.230469,137.920807 246.462830,137.920807 230.113480,137.920807 
	C230.113480,135.145294 230.113022,132.858505 230.113541,130.571701 
	C230.117798,111.907051 230.209366,93.241684 230.054245,74.578362 
	C230.022644,70.775467 230.966019,69.388824 235.051178,69.398880 
	C287.045258,69.526794 339.039856,69.496193 391.034180,69.434807 
	C394.133270,69.431145 395.984314,69.777443 395.955048,73.656784 
	C395.800293,94.153389 395.880035,114.651741 395.857330,135.149460 
	C395.856445,135.942154 395.639679,136.734619 395.447052,138.048965 
	C379.815948,138.048965 364.368866,138.048965 348.457886,137.976624 
z"/>
<path fill="#F7911D" opacity="1.000000" stroke="none" 
	d="
M244.654144,258.988617 
	C227.169098,258.936981 209.979431,258.798065 192.791153,258.559753 
	C186.367661,258.470734 179.917831,258.433502 173.543091,257.768188 
	C171.545135,257.559662 169.753296,255.376160 167.522247,254.050995 
	C173.180984,244.418320 179.184570,234.831299 185.747162,224.993713 
	C186.479187,224.417603 186.652222,224.092072 186.825256,223.766525 
	C186.825256,223.766525 186.847885,223.879456 187.079193,223.791687 
	C187.466370,223.377090 187.622238,223.050262 187.778107,222.723434 
	C187.778107,222.723434 187.814026,222.848511 188.065918,222.751663 
	C188.525223,222.080322 188.732635,221.505829 188.940033,220.931335 
	C188.940033,220.931335 188.988251,221.005615 189.294647,220.950226 
	C190.033127,220.215546 190.465225,219.536240 190.897308,218.856918 
	C190.897308,218.856918 190.960632,218.966324 191.274063,218.933441 
	C192.314606,217.849335 193.041702,216.798111 193.768814,215.746887 
	C193.768814,215.746887 193.841965,215.836090 194.071976,215.774857 
	C194.554367,215.211441 194.806747,214.709274 195.059113,214.207092 
	C195.230545,213.885452 195.402008,213.563812 196.151154,213.324402 
	C198.667923,216.040649 197.672073,221.188324 202.952667,220.933716 
	C205.713272,220.800598 208.558594,220.608124 211.174255,219.812912 
	C213.628922,219.066635 215.359344,218.621048 217.226349,221.075958 
	C218.024170,222.124985 220.791656,222.985321 221.716644,222.409470 
	C226.616089,219.359268 231.942093,220.333954 237.163757,219.894470 
	C240.292328,219.631165 243.333511,218.329727 247.918869,217.087067 
	C248.334854,218.247406 249.184845,220.563278 249.993820,222.893356 
	C250.581299,224.585449 251.114563,226.296341 251.671997,227.998840 
	C251.773392,235.455872 252.559998,242.997971 251.649979,250.329468 
	C251.268417,253.403427 247.292084,256.031189 244.654144,258.988617 
M194.350281,228.303009 
	C195.062012,228.651459 195.773727,228.999908 196.485443,229.348358 
	C196.573196,228.911072 196.660950,228.473785 196.748703,228.036499 
	C195.984299,227.910583 195.219879,227.784683 194.350281,228.303009 
z"/>
<path fill="#F5841D" opacity="1.000000" stroke="none" 
	d="
M152.739136,297.313385 
	C153.939392,295.169708 154.921326,293.331421 156.447968,290.473419 
	C159.320358,292.538513 162.427155,294.402924 165.071182,296.781738 
	C167.487396,298.955597 169.683945,299.171570 172.749619,298.348816 
	C175.232452,297.682526 178.057693,298.336395 180.730377,298.315399 
	C182.166183,298.304138 183.605698,297.967285 185.034378,298.020996 
	C187.506424,298.113892 189.970856,298.545105 192.439423,298.553467 
	C194.520889,298.560547 196.764496,298.587982 198.651428,297.863892 
	C202.239120,296.487244 204.322876,297.275146 206.435806,300.600677 
	C209.108627,304.807404 212.381851,308.757904 218.127487,310.057190 
	C218.019928,318.841095 217.534180,327.476349 217.033966,336.919556 
	C216.323746,339.698761 215.187073,343.433533 214.996140,343.385803 
	C208.618561,341.791260 200.327942,345.844574 196.434952,337.060242 
	C194.588684,337.711639 192.369476,337.789124 191.620056,338.878082 
	C187.860168,344.341522 182.366852,342.917389 177.234558,342.986603 
	C172.587708,343.049286 167.915207,343.277527 163.301987,342.878265 
	C161.047119,342.683136 158.784164,341.434937 156.739288,340.282806 
	C154.705338,339.136841 152.940079,337.513947 150.907715,336.059998 
	C150.758438,336.019775 150.450317,335.993774 150.450317,335.993774 
	C150.324631,334.567505 150.198944,333.141205 150.411926,330.987915 
	C150.612045,326.880280 150.473511,323.499725 150.334961,320.119141 
	C150.371338,318.314850 150.407730,316.510559 150.697113,314.247620 
	C150.950134,313.788971 151.075653,313.685852 151.347870,313.553040 
	C151.743637,312.610382 151.867172,311.800476 151.990860,310.624084 
	C151.779205,308.879730 151.567413,307.501831 151.355606,306.123962 
	C151.341705,305.625153 151.327789,305.126312 151.592270,304.256256 
	C151.870667,303.885010 152.068634,303.788330 152.283691,303.713837 
	C152.394989,303.170929 152.291214,302.702515 152.148285,302.172729 
	C152.109116,302.111328 152.005966,302.008514 152.005966,302.008514 
	C152.177582,300.545258 152.349197,299.082031 152.739136,297.313385 
z"/>
<path fill="#F47C20" opacity="1.000000" stroke="none" 
	d="
M406.767975,306.375153 
	C407.866302,310.679993 409.579224,315.394440 409.838776,320.187561 
	C410.176727,326.428680 409.457764,332.739166 409.010376,339.006714 
	C408.679230,343.645264 409.403046,344.156433 413.874664,343.638275 
	C418.735565,343.074951 423.688568,343.353363 428.574890,342.946411 
	C432.308594,342.635406 435.990234,341.740204 439.717194,341.286957 
	C441.147186,341.113098 442.702545,341.208344 444.091339,341.584686 
	C451.456848,343.580780 458.625946,344.151520 465.891052,340.760559 
	C467.921265,339.812927 470.768585,340.616058 473.460022,340.616058 
	C473.953033,336.105865 474.532410,330.805664 475.420837,325.285248 
	C476.323975,343.386169 473.195465,361.119354 466.887085,378.860596 
	C466.230072,379.561218 466.118164,379.864899 466.135315,380.216217 
	C466.135315,380.216217 466.172729,380.165710 466.197571,380.186127 
	C464.457306,381.346924 462.692230,382.487305 460.916992,383.634247 
	C455.972076,377.915039 449.103149,379.273071 443.060669,379.380402 
	C434.994446,379.523682 427.012817,381.175354 419.018524,378.321533 
	C417.347260,377.724915 414.807556,378.599152 413.017731,379.494537 
	C409.161682,381.423584 405.816467,383.763092 401.089417,380.909119 
	C399.758392,380.105530 396.501495,382.385437 394.177368,383.367981 
	C392.439850,384.102539 390.781799,385.024963 388.664246,385.770691 
	C388.240112,385.677612 388.333679,385.337280 388.765381,385.099945 
	C389.462128,384.327301 389.727203,383.791992 389.992279,383.256683 
	C395.000092,372.876312 400.988098,362.839508 404.776093,352.031616 
	C409.901733,337.407166 409.540619,322.046661 406.767975,306.375153 
z"/>
<path fill="#F58A1D" opacity="1.000000" stroke="none" 
	d="
M473.071045,296.586823 
	C472.235260,295.584717 471.449707,294.162567 470.909180,293.184021 
	C451.384064,293.184021 432.106903,293.184021 412.829742,293.184021 
	C413.082489,293.548004 413.335236,293.911987 413.588013,294.275970 
	C411.655212,296.184143 409.722443,298.092316 407.144958,299.901489 
	C406.030945,299.542389 405.561615,299.282349 405.092285,299.022308 
	C400.059937,289.112518 395.209778,279.103394 389.889709,269.350555 
	C388.185608,266.226562 385.238525,263.780579 382.810669,260.692047 
	C383.114716,260.016052 383.552673,259.318970 383.809448,259.380310 
	C390.646851,261.013916 396.874939,257.453094 403.410889,257.124939 
	C413.049500,256.640961 422.739380,257.257568 432.390717,256.923065 
	C440.973877,256.625549 449.534271,255.671814 458.522919,255.008163 
	C458.941101,255.008621 458.988647,254.990250 459.024628,255.350220 
	C459.764191,256.787445 460.467804,257.864685 461.171387,258.941925 
	C465.154663,271.350220 469.137970,283.758484 473.071045,296.586823 
z"/>
<path fill="#F27620" opacity="1.000000" stroke="none" 
	d="
M253.977036,401.409760 
	C253.730911,402.378632 253.342239,403.055603 252.953583,403.732574 
	C247.857361,399.860138 243.830551,406.156372 238.790771,405.148041 
	C233.409149,404.071350 227.582733,405.291168 222.706924,401.582031 
	C222.109711,401.127777 220.493759,401.535187 219.607269,402.016907 
	C214.198883,404.955872 208.906525,406.947968 203.023727,402.871521 
	C202.205490,402.304565 199.151794,403.217712 198.668915,404.200409 
	C195.857376,409.922119 189.597916,409.872925 185.091904,412.658997 
	C184.405716,413.083282 181.571915,411.792511 181.315598,410.859711 
	C179.963135,405.937744 176.929184,406.761597 173.172272,408.210205 
	C172.789032,408.346619 172.802063,408.286469 172.769379,407.991882 
	C172.459961,407.477753 172.183212,407.258179 171.906464,407.038605 
	C167.877045,398.408447 163.847610,389.778290 159.985916,380.456665 
	C161.765533,378.222687 163.377411,376.680176 164.989288,375.137695 
	C164.489655,374.584045 163.990036,374.030426 163.490402,373.476776 
	C161.880905,374.843750 160.271408,376.210724 158.661896,377.577667 
	C158.335007,376.798920 158.008102,376.020172 157.760010,374.632202 
	C157.638992,373.700562 157.439163,373.378204 157.239319,373.055817 
	C156.674759,371.324463 156.110199,369.593140 155.910538,367.471741 
	C162.067963,371.538757 168.198105,373.235046 175.457855,370.554749 
	C176.725754,370.086700 179.040924,372.767303 180.992386,373.757111 
	C183.270660,374.912750 185.637680,375.973877 188.087204,376.610291 
	C188.395828,376.690460 189.438736,373.944305 190.051743,372.690979 
	C202.010956,371.832642 214.127975,370.962982 226.244995,370.093323 
	C226.518570,370.509064 226.792130,370.924866 227.048233,371.991791 
	C228.103424,373.367065 229.176086,374.091187 230.248764,374.815277 
	C230.248764,374.815277 230.162537,374.890289 230.198853,375.098999 
	C230.501221,375.530121 230.767273,375.752563 231.033325,375.974976 
	C238.633713,384.355927 246.234100,392.736908 253.977036,401.409760 
M198.523529,375.304718 
	C199.488388,375.407501 200.453232,375.510284 201.418091,375.613068 
	C201.396454,375.149933 201.374817,374.686798 201.353180,374.223633 
	C200.412430,374.364349 199.471680,374.505035 198.523529,375.304718 
z"/>
<path fill="#F47C20" opacity="1.000000" stroke="none" 
	d="
M226.537750,370.034393 
	C214.127975,370.962982 202.010956,371.832642 190.051743,372.690979 
	C189.438736,373.944305 188.395828,376.690460 188.087204,376.610291 
	C185.637680,375.973877 183.270660,374.912750 180.992386,373.757111 
	C179.040924,372.767303 176.725754,370.086700 175.457855,370.554749 
	C168.198105,373.235046 162.067963,371.538757 155.869003,367.080627 
	C155.352966,366.920685 155.243347,366.761810 155.085403,366.254089 
	C155.037079,365.905304 154.975327,365.469025 154.975327,365.469025 
	C154.776154,364.896179 154.576965,364.323364 154.550461,363.113525 
	C154.456436,361.659790 154.189728,360.843048 153.923019,360.026337 
	C153.400574,357.899139 152.878143,355.771973 152.569366,353.017151 
	C152.428528,351.008087 152.074036,349.626617 151.719543,348.245178 
	C151.558762,347.729156 151.397964,347.213135 151.491592,345.987488 
	C151.516342,342.218658 151.286667,339.159454 151.056992,336.100220 
	C152.940079,337.513947 154.705338,339.136841 156.739288,340.282806 
	C158.784164,341.434937 161.047119,342.683136 163.301987,342.878265 
	C167.915207,343.277527 172.587708,343.049286 177.234558,342.986603 
	C182.366852,342.917389 187.860168,344.341522 191.620056,338.878082 
	C192.369476,337.789124 194.588684,337.711639 196.434952,337.060242 
	C200.327942,345.844574 208.618561,341.791260 214.996140,343.385803 
	C215.187073,343.433533 216.323746,339.698761 217.034119,337.300201 
	C219.430313,345.059052 221.800064,353.248688 224.199814,361.429535 
	C225.038696,364.289307 225.951477,367.127441 226.537750,370.034393 
z"/>
<path fill="#F7981F" opacity="1.000000" stroke="none" 
	d="
M251.791595,227.543793 
	C251.114563,226.296341 250.581299,224.585449 249.993820,222.893356 
	C249.184845,220.563278 248.334854,218.247406 247.918869,217.087067 
	C243.333511,218.329727 240.292328,219.631165 237.163757,219.894470 
	C231.942093,220.333954 226.616089,219.359268 221.716644,222.409470 
	C220.791656,222.985321 218.024170,222.124985 217.226349,221.075958 
	C215.359344,218.621048 213.628922,219.066635 211.174255,219.812912 
	C208.558594,220.608124 205.713272,220.800598 202.952667,220.933716 
	C197.672073,221.188324 198.667923,216.040649 196.414276,213.229553 
	C208.636246,199.147720 223.756805,188.725815 240.361786,180.337296 
	C243.842102,178.579086 247.481400,177.135559 251.911209,175.162247 
	C251.911209,193.214050 251.911209,210.151413 251.791595,227.543793 
z"/>
<path fill="#F16A23" opacity="1.000000" stroke="none" 
	d="
M215.934387,456.501770 
	C219.056656,456.939209 222.413010,457.432068 225.513596,458.602448 
	C226.307220,458.902008 226.292358,461.343353 226.394104,463.190460 
	C222.783981,461.323181 219.428680,459.066132 215.934387,456.501770 
z"/>
<path fill="#F47C20" opacity="1.000000" stroke="none" 
	d="
M475.635010,317.563049 
	C475.033173,317.403900 474.145996,316.854065 474.098602,316.239502 
	C473.668121,310.657379 473.384247,305.063934 473.083649,298.989746 
	C473.986267,304.717896 474.862732,310.930145 475.635010,317.563049 
z"/>
<path fill="#F16A23" opacity="1.000000" stroke="none" 
	d="
M202.123001,445.335632 
	C204.496338,444.857239 206.897247,444.711334 209.636230,444.544891 
	C209.080902,446.148773 208.533447,447.729858 207.962036,449.680847 
	C206.008911,448.589874 204.079742,447.128998 202.123001,445.335632 
z"/>
<path fill="#F47C20" opacity="1.000000" stroke="none" 
	d="
M158.670258,377.891602 
	C160.271408,376.210724 161.880905,374.843750 163.490402,373.476776 
	C163.990036,374.030426 164.489655,374.584045 164.989288,375.137695 
	C163.377411,376.680176 161.765533,378.222687 159.971008,380.086548 
	C159.418457,379.673767 159.048538,378.939667 158.670258,377.891602 
z"/>
<path fill="#F7981F" opacity="1.000000" stroke="none" 
	d="
M150.174667,320.473450 
	C150.473511,323.499725 150.612045,326.880280 150.512512,330.566101 
	C150.187744,327.523499 150.101059,324.175659 150.174667,320.473450 
z"/>
<path fill="#F27620" opacity="1.000000" stroke="none" 
	d="
M427.426147,441.153564 
	C429.206543,438.833038 431.326416,436.439758 433.824585,434.061829 
	C432.057129,436.411713 429.911407,438.746277 427.426147,441.153564 
z"/>
<path fill="#F7981F" opacity="1.000000" stroke="none" 
	d="
M150.907715,336.059998 
	C151.286667,339.159454 151.516342,342.218658 151.521622,345.578705 
	C150.954422,342.865387 150.611618,339.851288 150.359573,336.415466 
	C150.450317,335.993774 150.758438,336.019775 150.907715,336.059998 
z"/>
<path fill="#F6911D" opacity="1.000000" stroke="none" 
	d="
M279.035065,191.494537 
	C279.308929,195.810471 279.485107,200.580505 279.389130,205.655640 
	C279.057129,201.290039 278.997253,196.619339 279.035065,191.494537 
z"/>
<path fill="#F7981F" opacity="1.000000" stroke="none" 
	d="
M151.220184,306.494171 
	C151.567413,307.501831 151.779205,308.879730 151.748199,310.811401 
	C151.362152,312.138763 151.218903,312.912323 151.075653,313.685852 
	C151.075653,313.685852 150.950134,313.788971 150.883636,313.834229 
	C150.906357,311.541107 150.995560,309.202759 151.220184,306.494171 
z"/>
<path fill="#F47C20" opacity="1.000000" stroke="none" 
	d="
M230.232452,374.466217 
	C229.176086,374.091187 228.103424,373.367065 227.042007,372.246704 
	C228.107559,372.606049 229.161850,373.361603 230.232452,374.466217 
z"/>
<path fill="#F47C20" opacity="1.000000" stroke="none" 
	d="
M463.715515,387.907471 
	C462.811401,387.443573 462.110901,386.708588 461.410400,385.973602 
	C462.047943,385.652405 462.685455,385.331177 463.677979,385.005188 
	C463.995056,385.879028 463.957123,386.757660 463.715515,387.907471 
z"/>
<path fill="#F7981F" opacity="1.000000" stroke="none" 
	d="
M193.466766,215.841309 
	C193.041702,216.798111 192.314606,217.849335 191.221802,218.897919 
	C191.625641,217.908752 192.395172,216.922241 193.466766,215.841309 
z"/>
<path fill="#F47C20" opacity="1.000000" stroke="none" 
	d="
M405.068420,299.393982 
	C405.561615,299.282349 406.030945,299.542389 406.748932,299.904938 
	C406.974426,301.236420 406.951233,302.465393 406.890991,304.158630 
	C406.250763,303.003815 405.647675,301.384735 405.068420,299.393982 
z"/>
<path fill="#F7981F" opacity="1.000000" stroke="none" 
	d="
M151.614532,348.563110 
	C152.074036,349.626617 152.428528,351.008087 152.617920,352.612091 
	C152.138382,351.516785 151.823944,350.198944 151.614532,348.563110 
z"/>
<path fill="#F6911D" opacity="1.000000" stroke="none" 
	d="
M461.161072,258.599030 
	C460.467804,257.864685 459.764191,256.787445 459.031189,255.374451 
	C459.718140,256.111176 460.434448,257.183655 461.161072,258.599030 
z"/>
<path fill="#F7981F" opacity="1.000000" stroke="none" 
	d="
M153.798065,360.299835 
	C154.189728,360.843048 154.456436,361.659790 154.552704,362.656189 
	C154.145874,362.081696 153.909500,361.327515 153.798065,360.299835 
z"/>
<path fill="#F7981F" opacity="1.000000" stroke="none" 
	d="
M190.596695,218.931580 
	C190.465225,219.536240 190.033127,220.215546 189.262497,220.919312 
	C189.381332,220.297928 189.838715,219.652084 190.596695,218.931580 
z"/>
<path fill="#F6911D" opacity="1.000000" stroke="none" 
	d="
M423.146973,206.521683 
	C422.524628,206.404602 421.823090,205.987808 421.110565,205.221527 
	C421.755676,205.322006 422.411713,205.771988 423.146973,206.521683 
z"/>
<path fill="#F16A23" opacity="1.000000" stroke="none" 
	d="
M209.742188,451.664673 
	C210.374435,451.741241 211.118881,452.097748 211.869003,452.820496 
	C211.201248,452.772705 210.527802,452.358643 209.742188,451.664673 
z"/>
<path fill="#F27421" opacity="1.000000" stroke="none" 
	d="
M389.695496,383.352844 
	C389.727203,383.791992 389.462128,384.327301 388.908173,384.996277 
	C388.879089,384.569611 389.138916,384.009308 389.695496,383.352844 
z"/>
<path fill="#F16A23" opacity="1.000000" stroke="none" 
	d="
M214.185333,455.258728 
	C214.600830,455.216553 215.145248,455.441132 215.786530,455.958344 
	C215.360367,456.009125 214.837326,455.767273 214.185333,455.258728 
z"/>
<path fill="#F7981F" opacity="1.000000" stroke="none" 
	d="
M154.866119,365.547485 
	C154.975327,365.469025 155.037079,365.905304 155.048233,365.966949 
	C155.059387,366.028595 154.773605,366.004364 154.773605,366.004364 
	C154.773605,366.004364 154.756912,365.625946 154.866119,365.547485 
z"/>
<path fill="#F16A23" opacity="1.000000" stroke="none" 
	d="
M208.056763,450.345795 
	C208.519501,450.296021 209.088593,450.531464 209.698273,451.095490 
	C209.213593,451.159760 208.688354,450.895386 208.056763,450.345795 
z"/>
<path fill="#F7981F" opacity="1.000000" stroke="none" 
	d="
M188.677048,221.076263 
	C188.732635,221.505829 188.525223,222.080322 188.003815,222.732239 
	C187.931229,222.280182 188.172638,221.750687 188.677048,221.076263 
z"/>
<path fill="#F7981F" opacity="1.000000" stroke="none" 
	d="
M194.792023,214.308197 
	C194.806747,214.709274 194.554367,215.211441 194.014664,215.781403 
	C193.993210,215.369202 194.259079,214.889236 194.792023,214.308197 
z"/>
<path fill="#F6911D" opacity="1.000000" stroke="none" 
	d="
M426.789459,209.730972 
	C426.351135,209.722870 425.800323,209.425964 425.175415,208.804871 
	C425.626526,208.801147 426.151733,209.121658 426.789459,209.730972 
z"/>
<path fill="#F7981F" opacity="1.000000" stroke="none" 
	d="
M152.068634,303.788330 
	C152.068634,303.788330 151.870667,303.885010 151.767761,303.922455 
	C151.676025,303.453674 151.687180,302.947479 151.852142,302.224884 
	C152.005966,302.008514 152.109116,302.111328 152.097900,302.427765 
	C152.080673,303.092255 152.074646,303.440277 152.068634,303.788330 
z"/>
<path fill="#F7981F" opacity="1.000000" stroke="none" 
	d="
M187.501831,222.784500 
	C187.622238,223.050262 187.466370,223.377090 187.029846,223.762009 
	C186.907974,223.495255 187.066772,223.170410 187.501831,222.784500 
z"/>
<path fill="#F47C20" opacity="1.000000" stroke="none" 
	d="
M230.995911,375.701599 
	C230.767273,375.752563 230.501221,375.530121 230.181900,375.044434 
	C230.405243,374.996857 230.681870,375.212524 230.995911,375.701599 
z"/>
<path fill="#FAAD1E" opacity="1.000000" stroke="none" 
	d="
M278.247223,138.174103 
	C278.435852,138.096268 278.661438,138.288101 278.914154,138.756912 
	C278.733093,138.821396 278.514069,138.624695 278.247223,138.174103 
z"/>
<path fill="#F7981F" opacity="1.000000" stroke="none" 
	d="
M186.545288,223.838684 
	C186.652222,224.092072 186.479187,224.417603 186.033463,224.832108 
	C185.928955,224.584335 186.097122,224.247589 186.545288,223.838684 
z"/>
<path fill="#F16A23" opacity="1.000000" stroke="none" 
	d="
M211.902344,453.356781 
	C212.130539,453.272705 212.439575,453.461639 212.847839,453.910370 
	C212.625778,453.990082 212.304474,453.809937 211.902344,453.356781 
z"/>
<path fill="#F6911D" opacity="1.000000" stroke="none" 
	d="
M424.318359,207.610199 
	C424.091827,207.715134 423.716400,207.546661 423.216492,207.086365 
	C423.451202,206.975281 423.810303,207.156036 424.318359,207.610199 
z"/>
<path fill="#FAAD1E" opacity="1.000000" stroke="none" 
	d="
M347.179169,138.842804 
	C347.069855,138.673004 347.219727,138.420532 347.633636,138.092194 
	C347.736389,138.261093 347.583282,138.509018 347.179169,138.842804 
z"/>
<path fill="#F6911D" opacity="1.000000" stroke="none" 
	d="
M421.049286,204.669250 
	C420.829651,204.753052 420.540070,204.573654 420.152527,204.151871 
	C420.362823,204.075012 420.671082,204.240540 421.049286,204.669250 
z"/>
<path fill="#F27421" opacity="1.000000" stroke="none" 
	d="
M171.937042,407.317871 
	C172.183212,407.258179 172.459961,407.477753 172.787170,407.966797 
	C172.547653,408.023193 172.257629,407.810181 171.937042,407.317871 
z"/>
<path fill="#F6911D" opacity="1.000000" stroke="none" 
	d="
M420.026489,203.678772 
	C419.804352,203.743210 419.519226,203.540268 419.149719,203.082474 
	C419.364746,203.022217 419.664124,203.216797 420.026489,203.678772 
z"/>
<path fill="#F47C20" opacity="1.000000" stroke="none" 
	d="
M157.202011,373.358032 
	C157.439163,373.378204 157.638992,373.700562 157.847778,374.317596 
	C157.626053,374.294891 157.395386,373.977570 157.202011,373.358032 
z"/>
<path fill="#F27421" opacity="1.000000" stroke="none" 
	d="
M466.387665,380.126984 
	C466.118164,379.864899 466.230072,379.561218 466.675171,379.165649 
	C466.799500,379.363342 466.719757,379.700531 466.387665,380.126984 
z"/>
<path fill="#F27620" opacity="1.000000" stroke="none" 
	d="
M262.466125,409.608246 
	C262.350067,410.058380 262.066620,410.334351 261.765167,410.588928 
	C261.757477,410.595459 261.552216,410.368103 261.439026,410.249817 
	C261.724854,409.976990 262.010651,409.704132 262.466125,409.608246 
z"/>
<path fill="#F27421" opacity="1.000000" stroke="none" 
	d="
M237.869171,431.606506 
	C236.930420,431.583984 236.058960,431.214203 235.187500,430.844421 
	C235.458130,430.324402 235.728745,429.804443 235.999359,429.284454 
	C236.645065,429.942719 237.290756,430.600952 237.869171,431.606506 
z"/>
<path fill="#FAA618" opacity="1.000000" stroke="none" 
	d="
M231.491058,133.993179 
	C231.066269,119.672035 231.206497,105.350151 230.919876,91.036819 
	C230.825150,86.305847 232.682419,84.922050 237.053879,84.952026 
	C254.036331,85.068474 271.020050,84.999146 288.003296,84.999107 
	C321.137299,84.999046 354.271271,84.996437 387.405273,85.001335 
	C393.983063,85.002312 393.896393,85.017258 394.019226,91.719223 
	C394.277863,105.831161 394.636810,119.941254 394.569550,134.480774 
	C389.829346,133.659348 384.866516,130.447571 381.246094,131.569122 
	C373.800354,133.875687 366.474548,133.843582 359.000000,134.000000 
	C358.924988,132.174026 358.849945,130.348038 358.774902,128.522064 
	C357.108490,128.851486 355.354309,128.952667 353.792328,129.553543 
	C349.289673,131.285614 345.045685,133.292465 339.977173,130.738525 
	C338.212616,129.849411 335.480774,131.077087 333.209534,130.963058 
	C321.810059,130.390854 310.422028,129.415817 299.018433,129.204208 
	C295.395691,129.136993 291.787445,131.315002 288.083252,131.879120 
	C282.957184,132.659805 277.751892,132.964584 272.569641,133.309311 
	C270.602142,133.440201 268.550812,133.360870 266.633484,132.940491 
	C264.015076,132.366379 261.529419,131.186951 258.910980,130.613388 
	C256.096588,129.996918 253.070404,129.065063 250.355591,129.535187 
	C244.129547,130.613403 238.036682,132.460709 231.491058,133.993179 
z"/>
<path fill="#FAA618" opacity="1.000000" stroke="none" 
	d="
M358.990234,136.970001 
	C358.244934,136.976166 357.499634,136.982315 356.382019,136.978912 
	C356.759644,135.984467 357.509552,134.999557 358.629700,134.378937 
	C358.996735,135.485458 358.993469,136.227737 358.990234,136.970001 
z"/>
<path fill="#F89F1B" opacity="1.000000" stroke="none" 
	d="
M359.459808,136.980621 
	C358.993469,136.227737 358.996735,135.485458 359.000000,134.371597 
	C366.474548,133.843582 373.800354,133.875687 381.246094,131.569122 
	C384.866516,130.447571 389.829346,133.659348 394.541626,134.947723 
	C393.484833,135.657242 392.079895,136.887314 390.655579,136.910202 
	C380.415710,137.074615 370.171936,136.994064 359.459808,136.980621 
z"/>
<path fill="#F7981F" opacity="1.000000" stroke="none" 
	d="
M194.402878,227.980896 
	C195.219879,227.784683 195.984299,227.910583 196.748703,228.036499 
	C196.660950,228.473785 196.573196,228.911072 196.485443,229.348358 
	C195.773727,228.999908 195.062012,228.651459 194.402878,227.980896 
z"/>
<path fill="#F47C20" opacity="1.000000" stroke="none" 
	d="
M151.347870,313.553040 
	C151.218903,312.912323 151.362152,312.138763 151.748047,311.177917 
	C151.867172,311.800476 151.743637,312.610382 151.347870,313.553040 
z"/>
<path fill="#F47C20" opacity="1.000000" stroke="none" 
	d="
M152.283691,303.713837 
	C152.074646,303.440277 152.080673,303.092255 152.137070,302.489136 
	C152.291214,302.702515 152.394989,303.170929 152.283691,303.713837 
z"/>
<path fill="#F47C20" opacity="1.000000" stroke="none" 
	d="
M198.527222,374.975220 
	C199.471680,374.505035 200.412430,374.364349 201.353180,374.223633 
	C201.374817,374.686798 201.396454,375.149933 201.418091,375.613068 
	C200.453232,375.510284 199.488388,375.407501 198.527222,374.975220 
z"/>
</svg>